<svg xmlns="http://www.w3.org/2000/svg" viewBox="0 0 512 512" role="img" aria-label="Rio Macca favicon">
  <defs>
    <linearGradient id="bg" x1="0" y1="0" x2="1" y2="1">
      <stop offset="0" stop-color="#F9D43A"/>
      <stop offset="1" stop-color="#F5C518"/>
    </linearGradient>
    <radialGradient id="shell" cx="35%" cy="30%" r="75%">
      <stop offset="0" stop-color="#87603D"/>
      <stop offset="1" stop-color="#5F3E24"/>
    </radialGradient>
    <radialGradient id="kernel" cx="35%" cy="30%" r="70%">
      <stop offset="0" stop-color="#FFF9E8"/>
      <stop offset="1" stop-color="#F1E1BC"/>
    </radialGradient>
    <filter id="shadow" x="-20%" y="-20%" width="140%" height="140%">
      <feDropShadow dx="0" dy="8" stdDeviation="8" flood-color="#000" flood-opacity="0.22"/>
    </filter>
  </defs>

  <rect x="8" y="8" width="496" height="496" rx="120" fill="url(#bg)"/>

  <g filter="url(#shadow)">
    <ellipse cx="256" cy="292" rx="170" ry="174" fill="url(#shell)"/>
    <ellipse cx="256" cy="290" rx="96" ry="100" fill="url(#kernel)"/>
    <path d="M184 300c22 16 44 23 72 23 22 0 45-5 70-19" fill="none" stroke="#E2CF9F" stroke-width="10" stroke-linecap="round"/>
  </g>

  <path d="M324 103c57 5 88 55 70 106-53 4-86-35-70-106Z" fill="#2D6A4F"/>
  <path d="M333 120c42 7 60 42 47 75-36 0-61-28-47-75Z" fill="#3E8A65"/>
</svg>
